<svg width="44" height="44" viewBox="0 0 44 44" fill="none" xmlns="http://www.w3.org/2000/svg">
<path d="M14.7169 34.1516C14.7169 34.3234 14.5129 34.4609 14.2556 34.4609C13.9629 34.4867 13.7589 34.3492 13.7589 34.1516C13.7589 33.9797 13.9629 33.8422 14.2202 33.8422C14.4863 33.8164 14.7169 33.9539 14.7169 34.1516ZM11.9581 33.7648C11.896 33.9367 12.0734 34.1344 12.3395 34.1859C12.5702 34.2719 12.8363 34.1859 12.8895 34.0141C12.9427 33.8422 12.7742 33.6445 12.5081 33.5672C12.2774 33.507 12.0202 33.593 11.9581 33.7648ZM15.879 33.6188C15.6218 33.6789 15.4444 33.8422 15.471 34.0398C15.4976 34.2117 15.7282 34.3234 15.9944 34.2633C16.2516 34.2031 16.429 34.0398 16.4024 33.868C16.3758 33.7047 16.1363 33.593 15.879 33.6188ZM21.7161 0.6875C9.4121 0.6875 0 9.73672 0 21.6562C0 31.1867 6.19194 39.3422 15.0363 42.2125C16.1718 42.4102 16.571 41.7313 16.571 41.1727C16.571 40.6398 16.5444 37.7008 16.5444 35.8961C16.5444 35.8961 10.3347 37.1852 9.03065 33.3352C9.03065 33.3352 8.01935 30.8344 6.56452 30.1898C6.56452 30.1898 4.53306 28.8406 6.70645 28.8664C6.70645 28.8664 8.91532 29.0383 10.1306 31.0836C12.0734 34.4008 15.329 33.4469 16.5976 32.8797C16.8016 31.5047 17.3782 30.5508 18.0169 29.9836C13.0581 29.4508 8.05484 28.7547 8.05484 20.4875C8.05484 18.1242 8.72903 16.9383 10.1484 15.4258C9.91774 14.8672 9.16371 12.5641 10.379 9.59062C12.2331 9.03203 16.5 11.9109 16.5 11.9109C18.2742 11.4297 20.1815 11.1805 22.071 11.1805C23.9605 11.1805 25.8677 11.4297 27.6419 11.9109C27.6419 11.9109 31.9089 9.02344 33.7629 9.59062C34.9782 12.5727 34.2242 14.8672 33.9935 15.4258C35.4129 16.9469 36.2823 18.1328 36.2823 20.4875C36.2823 28.7805 31.0573 29.4422 26.0984 29.9836C26.9145 30.6625 27.6065 31.9516 27.6065 33.9711C27.6065 36.8672 27.5798 40.4508 27.5798 41.1555C27.5798 41.7141 27.9879 42.393 29.1145 42.1953C37.9855 39.3422 44 31.1867 44 21.6562C44 9.73672 34.0202 0.6875 21.7161 0.6875ZM8.62258 30.3273C8.50726 30.4133 8.53387 30.6109 8.68468 30.7742C8.82661 30.9117 9.03064 30.9719 9.14597 30.8602C9.26129 30.7742 9.23468 30.5766 9.08387 30.4133C8.94194 30.2758 8.7379 30.2156 8.62258 30.3273ZM7.66452 29.6312C7.60242 29.743 7.69113 29.8805 7.86855 29.9664C8.01048 30.0523 8.1879 30.0266 8.25 29.9062C8.3121 29.7945 8.22339 29.657 8.04597 29.5711C7.86855 29.5195 7.72661 29.5453 7.66452 29.6312ZM10.5387 32.6906C10.3968 32.8023 10.45 33.0602 10.654 33.2234C10.8581 33.4211 11.1153 33.4469 11.2306 33.3094C11.346 33.1977 11.2927 32.9398 11.1153 32.7766C10.9202 32.5789 10.654 32.5531 10.5387 32.6906ZM9.52742 31.4273C9.38548 31.5133 9.38548 31.7367 9.52742 31.9344C9.66935 32.132 9.90887 32.218 10.0242 32.132C10.1661 32.0203 10.1661 31.7969 10.0242 31.5992C9.9 31.4016 9.66935 31.3156 9.52742 31.4273Z" fill="black"/>
</svg>
