<svg width="44" height="44" viewBox="0 0 44 44" fill="none" xmlns="http://www.w3.org/2000/svg">
<g clip-path="url(#clip0_1_156)">
<path d="M22.0098 12.1172C15.7634 12.1172 10.725 16.5258 10.725 21.9914C10.725 27.457 15.7634 31.8656 22.0098 31.8656C28.2563 31.8656 33.2946 27.457 33.2946 21.9914C33.2946 16.5258 28.2563 12.1172 22.0098 12.1172ZM22.0098 28.4109C17.9732 28.4109 14.6732 25.532 14.6732 21.9914C14.6732 18.4508 17.9634 15.5719 22.0098 15.5719C26.0563 15.5719 29.3464 18.4508 29.3464 21.9914C29.3464 25.532 26.0464 28.4109 22.0098 28.4109ZM36.3884 11.7133C36.3884 12.9937 35.2098 14.0164 33.7563 14.0164C32.2929 14.0164 31.1241 12.9852 31.1241 11.7133C31.1241 10.4414 32.3027 9.41015 33.7563 9.41015C35.2098 9.41015 36.3884 10.4414 36.3884 11.7133ZM43.8625 14.0508C43.6955 10.9656 42.8902 8.23281 40.3071 5.98124C37.7339 3.72968 34.6107 3.02499 31.0848 2.87031C27.4509 2.68984 16.5589 2.68984 12.925 2.87031C9.40893 3.0164 6.28571 3.72109 3.70268 5.97265C1.11964 8.22421 0.324107 10.957 0.147321 14.0422C-0.0589287 17.2219 -0.0589287 26.7523 0.147321 29.932C0.314286 33.0172 1.11964 35.75 3.70268 38.0016C6.28571 40.2531 9.39911 40.9578 12.925 41.1125C16.5589 41.293 27.4509 41.293 31.0848 41.1125C34.6107 40.9664 37.7339 40.2617 40.3071 38.0016C42.8804 35.75 43.6857 33.0172 43.8625 29.932C44.0688 26.7523 44.0688 17.2305 43.8625 14.0508ZM39.1679 33.3437C38.4018 35.0281 36.9188 36.3258 34.9839 37.0047C32.0866 38.0102 25.2116 37.7781 22.0098 37.7781C18.808 37.7781 11.9232 38.0016 9.03571 37.0047C7.11071 36.3344 5.62768 35.0367 4.85179 33.3437C3.70268 30.8086 3.96786 24.793 3.96786 21.9914C3.96786 19.1898 3.7125 13.1656 4.85179 10.6391C5.61786 8.95468 7.10089 7.65702 9.03571 6.97812C11.933 5.97265 18.808 6.20468 22.0098 6.20468C25.2116 6.20468 32.0964 5.98124 34.9839 6.97812C36.9089 7.64843 38.392 8.94609 39.1679 10.6391C40.317 13.1742 40.0518 19.1898 40.0518 21.9914C40.0518 24.793 40.317 30.8172 39.1679 33.3437Z" fill="black"/>
</g>
<defs>
<clipPath id="clip0_1_156">
<rect width="44" height="44" fill="white"/>
</clipPath>
</defs>
</svg>
