<svg width="44" height="44" viewBox="0 0 44 44" fill="none" xmlns="http://www.w3.org/2000/svg">
<path d="M9.84893 38.4999H0.726786V12.796H9.84893V38.4999ZM5.28295 9.28978C2.36598 9.28978 0 7.17571 0 4.62337C2.08784e-08 3.39739 0.556595 2.22162 1.54734 1.35472C2.53808 0.487814 3.88182 0.000793457 5.28295 0.000793457C6.68407 0.000793457 8.02781 0.487814 9.01855 1.35472C10.0093 2.22162 10.5659 3.39739 10.5659 4.62337C10.5659 7.17571 8.19893 9.28978 5.28295 9.28978ZM43.9902 38.4999H34.8877V25.9874C34.8877 23.0054 34.8189 19.1812 30.1449 19.1812C25.4021 19.1812 24.6754 22.421 24.6754 25.7726V38.4999H15.563V12.796H24.312V16.3023H24.4396C25.6575 14.2827 28.6324 12.1515 33.0707 12.1515C42.3029 12.1515 44 17.471 44 24.3804V38.4999H43.9902Z" fill="black"/>
</svg>
