<svg width="63" height="39" viewBox="0 0 63 39" fill="none" xmlns="http://www.w3.org/2000/svg">
<path d="M33.8674 0.128193C33.4589 0.236664 33.1291 0.433884 32.7748 0.788876C32.258 1.30164 32.2186 1.41505 31.7018 3.91972C31.4606 5.1129 30.9389 7.65209 30.5452 9.56511C30.1514 11.4781 29.5116 14.604 29.1178 16.5171C28.7241 18.4301 28.2368 20.8016 28.035 21.7927C27.6954 23.4493 27.0999 26.3484 25.6922 33.2067C25.3969 34.6415 25.1311 35.9678 25.1016 36.1502C24.9785 36.9391 25.328 37.8611 25.9481 38.3689C27.0654 39.286 28.6749 39.1085 29.5362 37.9646C29.9152 37.4666 29.8167 37.8512 30.9094 32.5263C31.2047 31.0718 31.6969 28.6904 31.9922 27.2408C32.2924 25.7913 32.7797 23.4148 33.075 21.9652C33.3752 20.5157 33.8625 18.1392 34.1578 16.6896C34.4581 15.2401 34.9453 12.8636 35.2406 11.414C35.9691 7.87889 36.8501 3.5598 36.9387 3.12099C37.1306 2.18913 36.9091 1.41998 36.2791 0.783947C35.9297 0.428951 35.5999 0.236664 35.157 0.123264C34.8075 0.029583 34.2169 0.0345154 33.8674 0.128193Z" fill="black"/>
<path d="M15.0117 3.99369C14.6967 4.04792 14.3276 4.20077 14.0716 4.37333C13.9535 4.45715 10.838 7.5387 7.15641 11.2218C-0.137811 18.5139 0.251017 18.0948 0.0738294 18.8393C-0.0196863 19.2436 -0.0196863 19.6233 0.0738294 19.9931C0.260861 20.7129 -0.127968 20.2938 7.10719 27.5564C11.5073 31.9741 13.9043 34.3457 14.1012 34.4689C14.554 34.7697 14.9674 34.8781 15.5679 34.8436C16.1487 34.814 16.4735 34.7006 16.9263 34.3752C17.7188 33.7934 18.1076 32.6742 17.8369 31.7473C17.6302 31.0472 17.8664 31.3036 11.7288 25.1454L6.00469 19.4014L11.6895 13.7067C14.8198 10.5759 17.4431 7.91341 17.5219 7.79508C17.8516 7.30203 17.9993 6.51316 17.8713 5.9215C17.5957 4.63465 16.3111 3.77182 15.0117 3.99369Z" fill="black"/>
<path d="M47.0236 4.01342C46.0934 4.22543 45.3256 4.99951 45.1287 5.92151C45.0007 6.51316 45.1484 7.30204 45.4781 7.79509C45.5569 7.91342 48.1803 10.5759 51.3106 13.7067L56.9953 19.4014L51.2712 25.1454C45.1336 31.3036 45.3699 31.0472 45.1631 31.7473C44.8924 32.6742 45.2813 33.7934 46.0737 34.3752C46.5265 34.7006 46.8513 34.814 47.4321 34.8436C48.0326 34.8781 48.446 34.7697 48.8988 34.4689C49.0957 34.3457 51.4927 31.9741 55.8928 27.5564C63.128 20.2938 62.7392 20.7129 62.9262 19.9931C63.0197 19.6233 63.0197 19.2436 62.9262 18.8393C62.749 18.0948 63.1378 18.5139 55.8436 11.2218C52.162 7.5387 49.0367 4.4473 48.8988 4.35855C48.387 4.01835 47.6241 3.87536 47.0236 4.01342Z" fill="black"/>
</svg>
