<svg width="385" height="484" viewBox="0 0 385 484" fill="none" xmlns="http://www.w3.org/2000/svg">
<path opacity="0.64" d="M191.989 484C298.021 484 383.978 465.874 383.978 443.513C383.978 421.154 298.021 403.028 191.989 403.028C85.9563 403.028 0 421.154 0 443.513C0 465.874 85.9563 484 191.989 484Z" fill="#225555" fill-opacity="0.07"/>
<path d="M99.9551 437.008C102.65 427.85 110.898 422.971 124.291 418.862C132.783 416.295 143.563 415.096 160.467 411.501C168.715 409.79 174.513 406.366 174.513 406.366V416.21C174.513 416.21 118.574 427.765 109.836 442.915C105.59 450.361 106.896 468.592 126.903 470.476C120.78 471.417 110.734 469.791 105.345 464.056C98.6484 456.952 96.8518 447.451 99.9551 437.008Z" fill="#282323" stroke="black" stroke-width="4" stroke-miterlimit="10" stroke-linecap="round" stroke-linejoin="round"/>
<path d="M174.513 416.21C174.513 416.21 141.031 422.715 123.148 430.76C107.468 437.865 107.958 445.225 107.55 452.758C107.305 457.123 110.245 467.909 122.167 469.791C136.376 472.017 153.117 469.62 174.513 455.326C174.513 420.318 174.513 416.21 174.513 416.21Z" fill="#442C2A"/>
<path opacity="0.37" d="M107.55 452.758C107.876 446.681 107.631 440.689 115.798 434.869C115.471 437.008 115.389 439.062 115.308 441.203C115.063 445.568 125.108 439.919 137.03 441.716C149.443 443.685 156.793 458.578 174.513 448.564C174.513 450.704 174.513 452.929 174.513 455.24C153.117 469.535 136.376 471.845 122.167 469.706C110.245 467.909 107.305 457.037 107.55 452.758Z" fill="#442C2A"/>
<path d="M174.513 416.21C174.513 416.21 141.031 422.715 123.148 430.76C107.468 437.865 107.958 445.225 107.55 452.758C107.305 457.123 110.245 467.909 122.167 469.791C136.376 472.017 153.117 469.62 174.513 455.326C174.513 420.318 174.513 416.21 174.513 416.21Z" stroke="black" stroke-width="4" stroke-miterlimit="10" stroke-linecap="round" stroke-linejoin="round"/>
<path d="M143.482 436.324C140.787 437.864 141.439 452.844 147.973 454.898" stroke="black" stroke-width="4" stroke-miterlimit="10" stroke-linecap="round" stroke-linejoin="round"/>
<path d="M153.689 435.211C150.912 439.32 152.872 448.992 157.853 451.389" stroke="black" stroke-width="4" stroke-miterlimit="10" stroke-linecap="round" stroke-linejoin="round"/>
<path d="M163.081 431.788C160.304 435.896 162.264 445.568 167.245 447.965" stroke="black" stroke-width="4" stroke-miterlimit="10" stroke-linecap="round" stroke-linejoin="round"/>
<path d="M259.442 387.45C241.803 400.289 216.733 407.65 190.519 407.65C164.387 407.65 139.235 400.289 121.596 387.45C113.511 381.543 99.9551 369.218 99.9551 352.784C99.9551 336.35 113.511 324.024 121.596 318.118C139.235 305.278 164.305 297.917 190.519 297.917C216.651 297.917 241.803 305.278 259.442 318.118C267.527 324.024 281.083 336.35 281.083 352.784C281.083 369.218 267.527 381.543 259.442 387.45Z" fill="#151E28"/>
<path d="M340.206 366.478C339.879 368.191 339.554 369.817 339.063 371.529C326.324 420.231 264.914 457.209 191.009 457.209C116.941 457.209 55.3673 420.061 42.8729 371.187C42.5463 369.817 42.2197 368.447 41.9747 367.078C41.648 364.511 41.7297 361.942 42.2196 359.374C45.2412 344.994 61.9003 336.692 79.4578 340.801C90.9722 343.453 99.9552 350.9 103.957 359.717C104.365 361.6 105.018 363.483 105.753 365.281C110 375.552 118.493 383.255 124.208 387.535C141.276 400.374 165.693 407.735 191.009 407.735C216.406 407.735 240.741 400.374 257.809 387.535C263.608 383.17 272.181 375.38 276.346 365.109C277 363.483 277.571 361.686 277.979 359.974C281.899 351.072 290.963 343.625 302.56 340.886C320.118 336.777 336.777 345.165 339.798 359.46C340.37 361.686 340.452 364.083 340.206 366.478Z" fill="#2A3749"/>
<path opacity="0.67" d="M339.798 359.289C339.717 358.861 339.635 358.518 339.471 358.09C339.227 359.46 338.9 360.915 338.492 362.284C325.916 410.988 264.424 447.965 190.601 447.965C116.533 447.965 54.9589 410.817 42.4646 361.943C42.3012 361.429 42.2196 360.915 42.0562 360.317C41.7296 362.542 41.6479 364.767 41.9745 366.907C42.2196 368.276 42.5462 369.646 42.8728 371.016C55.3672 419.89 116.941 457.037 191.009 457.037C264.914 457.037 326.324 420.061 339.063 371.357C339.471 369.732 339.879 368.019 340.206 366.308C340.452 364.083 340.37 361.686 339.798 359.289Z" fill="#151E28"/>
<path d="M340.206 366.478C339.879 368.191 339.554 369.817 339.063 371.529C326.324 420.231 264.914 457.209 191.009 457.209C116.941 457.209 55.3673 420.061 42.8729 371.187C42.5463 369.817 42.2197 368.447 41.9747 367.078C41.648 364.511 41.7297 361.942 42.2196 359.374C45.2412 344.994 61.9003 336.692 79.4578 340.801C90.9722 343.453 99.9552 350.9 103.957 359.717C104.365 361.6 105.018 363.483 105.753 365.281C110 375.552 118.493 383.255 124.208 387.535C141.276 400.374 165.693 407.735 191.009 407.735C216.406 407.735 240.741 400.374 257.809 387.535C263.608 383.17 272.181 375.38 276.346 365.109C277 363.483 277.571 361.686 277.979 359.974C281.899 351.072 290.963 343.625 302.56 340.886C320.118 336.777 336.777 345.165 339.798 359.46C340.37 361.686 340.452 364.083 340.206 366.478Z" stroke="black" stroke-width="4" stroke-miterlimit="10" stroke-linecap="round" stroke-linejoin="round"/>
<path d="M191.988 381.543C232.625 381.543 265.566 369.817 265.566 355.352C265.566 340.886 232.625 329.16 191.988 329.16C151.353 329.16 118.41 340.886 118.41 355.352C118.41 369.817 151.353 381.543 191.988 381.543Z" fill="#9EBCD7"/>
<path d="M191.988 381.543C232.625 381.543 265.566 369.817 265.566 355.352C265.566 340.886 232.625 329.16 191.988 329.16C151.353 329.16 118.41 340.886 118.41 355.352C118.41 369.817 151.353 381.543 191.988 381.543Z" stroke="black" stroke-width="4" stroke-miterlimit="10" stroke-linecap="round" stroke-linejoin="round"/>
<path d="M275.775 298.174H106.243C93.2588 298.174 83.2143 286.277 84.8475 272.753L92.3605 209.841C94.4838 191.866 109.02 178.428 126.332 178.428H255.849C273.08 178.428 287.616 191.866 289.821 209.841L297.334 272.753C298.804 286.277 288.759 298.174 275.775 298.174Z" fill="#F1534D"/>
<path d="M275.775 298.174H106.243C93.2588 298.174 83.2143 286.277 84.8475 272.753L92.3605 209.841C94.4838 191.866 109.02 178.428 126.332 178.428H255.849C273.08 178.428 287.616 191.866 289.821 209.841L297.334 272.753C298.804 286.277 288.759 298.174 275.775 298.174Z" stroke="black" stroke-width="4" stroke-miterlimit="10" stroke-linecap="round" stroke-linejoin="round"/>
<path d="M124.617 231.582L122.984 253.066" stroke="black" stroke-width="4" stroke-miterlimit="10" stroke-linecap="round" stroke-linejoin="round"/>
<path d="M258.626 231.582L260.259 253.066" stroke="black" stroke-width="4" stroke-miterlimit="10" stroke-linecap="round" stroke-linejoin="round"/>
<path d="M275.775 298.174H106.243C93.2586 298.174 83.2141 286.277 84.8474 272.753L92.3603 209.841C94.4835 191.866 109.02 178.428 126.332 178.428H255.849C273.08 178.428 287.616 191.866 289.82 209.841L297.334 272.753C298.803 286.277 288.759 298.174 275.775 298.174Z" fill="#9EBCD7"/>
<g opacity="0.24">
<path opacity="0.24" d="M92.2788 216.517C94.402 198.542 108.938 185.104 126.251 185.104H255.767C272.998 185.104 287.535 198.542 289.739 216.517L297.17 278.916C297.415 276.947 297.497 274.893 297.251 272.753L289.739 209.841C287.616 191.866 273.08 178.428 255.767 178.428H126.251C109.02 178.428 94.4837 191.866 92.2788 209.841L84.7658 272.753C84.5208 274.807 84.5209 276.861 84.8475 278.916L92.2788 216.517Z" fill="#9B2121"/>
<path opacity="0.24" d="M133.764 185.104C133.764 185.104 143.807 186.987 144.624 192.808C145.278 197.516 145.196 200.597 146.911 202.48C148.626 204.363 152.628 208.215 160.713 208.215C156.22 203.507 156.139 186.987 154.914 186.987C153.771 186.987 150.83 178.77 150.83 178.77L146.911 176.887C146.993 176.887 132.539 178.77 133.764 185.104Z" fill="#9B2121"/>
<path opacity="0.24" d="M241.068 185.104C241.068 185.104 231.023 186.987 230.207 192.808C229.554 197.516 229.636 200.597 227.92 202.48C226.206 204.277 222.204 208.215 214.119 208.215C218.611 203.507 218.693 186.987 219.918 186.987C221.061 186.987 224 178.77 224 178.77L227.92 176.887C227.839 176.887 242.293 178.77 241.068 185.104Z" fill="#9B2121"/>
</g>
<path d="M275.775 298.174H106.243C93.2586 298.174 83.2141 286.277 84.8474 272.753L92.3603 209.841C94.4835 191.866 109.02 178.428 126.332 178.428H255.849C273.08 178.428 287.616 191.866 289.82 209.841L297.334 272.753C298.803 286.277 288.759 298.174 275.775 298.174Z" stroke="black" stroke-width="4" stroke-miterlimit="10" stroke-linecap="round" stroke-linejoin="round"/>
<path d="M124.617 231.582L122.984 253.066" stroke="black" stroke-width="4" stroke-miterlimit="10" stroke-linecap="round" stroke-linejoin="round"/>
<path d="M258.626 231.582L260.259 253.066" stroke="black" stroke-width="4" stroke-miterlimit="10" stroke-linecap="round" stroke-linejoin="round"/>
<path d="M169.205 142.65L142.338 141.194L129.761 142.65C129.761 142.65 121.351 149.24 121.351 151.037C121.351 152.835 122.167 167.471 122.167 167.471C122.167 167.471 142.011 170.296 144.134 172.436C146.258 174.576 158.834 186.902 158.834 186.902L171.002 181.938L177.371 164.133L169.205 142.65Z" fill="#6B6B6B"/>
<path d="M164.468 131.78H133.437C120.942 131.78 110.735 142.394 110.735 155.575C110.735 168.671 120.861 179.37 133.437 179.37H137.519C144.134 179.37 149.443 184.933 149.443 191.866V193.15C149.443 201.454 155.894 208.215 163.816 208.215V192.809C163.979 192.809 164.141 192.979 164.141 193.15V191.866C164.141 176.46 152.219 163.963 137.519 163.963H133.437C129.027 163.963 125.434 160.197 125.434 155.575C125.434 150.953 129.027 147.186 133.437 147.186H164.468V131.78Z" fill="black"/>
<path d="M162.591 182.194C158.834 171.58 149.035 163.877 137.602 163.877H133.519C129.109 163.877 125.516 160.111 125.516 155.488C125.516 150.867 129.109 147.101 133.519 147.101H164.551V131.693H133.519C121.025 131.693 110.817 142.307 110.817 155.488C110.817 168.584 120.942 179.284 133.519 179.284H137.602C144.217 179.284 149.524 184.848 149.524 191.781V193.065C149.524 201.367 155.976 208.13 163.897 208.13" stroke="black" stroke-width="4" stroke-miterlimit="10" stroke-linecap="round" stroke-linejoin="round"/>
<path d="M204.728 142.65L231.596 141.194L244.171 142.65C244.171 142.65 252.582 149.24 252.582 151.037C252.582 152.835 251.766 167.471 251.766 167.471C251.766 167.471 231.922 170.296 229.798 172.436C227.676 174.662 215.1 186.902 215.1 186.902L202.931 181.938L196.562 164.133L204.728 142.65Z" fill="#6B6B6B"/>
<path d="M209.464 131.778H240.496C252.99 131.778 263.198 142.392 263.198 155.574C263.198 168.67 253.073 179.369 240.496 179.369H236.413C229.798 179.369 224.491 184.933 224.491 191.866V193.15C224.491 201.453 218.039 208.215 210.118 208.215V192.808C209.954 192.808 209.791 192.979 209.791 193.15V191.866C209.791 176.459 221.713 163.963 236.413 163.963H240.496C244.907 163.963 248.499 160.197 248.499 155.574C248.499 150.952 244.907 147.186 240.496 147.186H209.464V131.778Z" fill="black"/>
<path d="M211.424 182.194C215.181 171.58 224.981 163.877 236.413 163.877H240.496C244.907 163.877 248.499 160.111 248.499 155.488C248.499 150.867 244.907 147.101 240.496 147.101H209.464V131.693H240.496C252.99 131.693 263.198 142.307 263.198 155.488C263.198 168.584 253.073 179.284 240.496 179.284H236.413C229.798 179.284 224.491 184.848 224.491 191.781V193.065C224.491 201.367 218.039 208.13 210.118 208.13" stroke="black" stroke-width="4" stroke-miterlimit="10" stroke-linecap="round" stroke-linejoin="round"/>
<path d="M188.478 196.06C206.067 196.06 220.326 181.115 220.326 162.679C220.326 144.242 206.067 129.296 188.478 129.296C170.888 129.296 156.629 144.242 156.629 162.679C156.629 181.115 170.888 196.06 188.478 196.06Z" fill="black"/>
<path d="M158.018 152.836C166.836 158.741 177.29 162.251 188.478 162.251C199.665 162.251 210.118 158.826 218.937 152.836C214.936 139.14 202.85 129.211 188.478 129.211C174.186 129.296 162.019 139.226 158.018 152.836Z" fill="#6B6B6B"/>
<path d="M188.478 196.06C206.067 196.06 220.326 181.115 220.326 162.679C220.326 144.242 206.067 129.296 188.478 129.296C170.888 129.296 156.629 144.242 156.629 162.679C156.629 181.115 170.888 196.06 188.478 196.06Z" stroke="black" stroke-width="4" stroke-miterlimit="10" stroke-linecap="round" stroke-linejoin="round"/>
<path d="M188.478 182.023C178.106 182.023 169.695 173.206 169.695 162.336V147.614C169.695 144.874 171.818 142.65 174.432 142.65H202.605C205.218 142.65 207.342 144.874 207.342 147.614V162.336C207.26 173.206 198.848 182.023 188.478 182.023Z" fill="#FFC897"/>
<path d="M202.605 142.65H174.432C171.818 142.65 169.695 145.046 169.695 147.956V160.025C175.575 162.336 181.863 163.62 188.478 163.62C195.091 163.62 201.381 162.336 207.26 160.025V147.956C207.26 145.046 205.136 142.65 202.605 142.65Z" fill="#E5A973"/>
<path d="M188.478 182.023C178.106 182.023 169.695 173.206 169.695 162.336V147.614C169.695 144.874 171.818 142.65 174.432 142.65H202.605C205.218 142.65 207.342 144.874 207.342 147.614V162.336C207.26 173.206 198.848 182.023 188.478 182.023Z" stroke="black" stroke-width="4" stroke-miterlimit="10" stroke-linecap="round" stroke-linejoin="round"/>
<path d="M208.812 403.797H191.336V462.259H208.812V403.797Z" fill="#607691"/>
<path d="M208.812 403.797H191.336V462.259H208.812V403.797Z" stroke="black" stroke-width="4" stroke-miterlimit="10" stroke-linecap="round" stroke-linejoin="round"/>
<path d="M105.671 365.109C104.936 363.312 104.365 361.515 103.875 359.546C104.773 361.429 105.345 363.227 105.671 365.109Z" stroke="black" stroke-width="4" stroke-miterlimit="10" stroke-linecap="round" stroke-linejoin="round"/>
<path d="M276.428 364.938C276.755 363.14 277.327 361.429 278.061 359.802C277.652 361.6 277.081 363.312 276.428 364.938Z" stroke="black" stroke-width="4" stroke-miterlimit="10" stroke-linecap="round" stroke-linejoin="round"/>
<path d="M276.183 360.83H105.916C99.8733 360.83 94.7286 356.123 93.9119 349.788L83.2958 262.654C82.3975 255.12 88.0323 248.359 95.3003 248.359H286.799C294.067 248.359 299.702 255.035 298.803 262.654L288.187 349.788C287.37 356.036 282.226 360.83 276.183 360.83Z" fill="#B5B5B5"/>
<path opacity="0.21" d="M288.106 344.311C287.37 350.644 282.226 355.351 276.101 355.351H105.916C99.8734 355.351 94.7287 350.644 93.9121 344.311L83.4593 258.458C83.2142 259.829 83.1326 261.198 83.296 262.652L93.9121 349.788C94.6471 356.122 99.7918 360.83 105.916 360.83H276.183C282.226 360.83 287.371 356.122 288.187 349.788L298.803 262.652C298.967 261.198 298.886 259.829 298.64 258.458L288.106 344.311Z" fill="#7E7E7E"/>
<path opacity="0.21" d="M83.3775 263.423C84.3574 257.603 89.2572 252.981 95.2186 252.981H286.718C292.76 252.981 297.578 257.517 298.559 263.423L298.64 262.567C299.538 255.035 293.904 248.272 286.635 248.272H95.3003C88.0323 248.272 82.3975 254.95 83.2958 262.567L83.3775 263.423Z" fill="#7E7E7E"/>
<path d="M276.183 360.83H105.916C99.8733 360.83 94.7286 356.123 93.9119 349.788L83.2958 262.654C82.3975 255.12 88.0323 248.359 95.3003 248.359H286.799C294.067 248.359 299.702 255.035 298.803 262.654L288.187 349.788C287.37 356.036 282.226 360.83 276.183 360.83Z" stroke="black" stroke-width="4" stroke-miterlimit="10" stroke-linecap="round" stroke-linejoin="round"/>
<path opacity="0.66" d="M199.094 299.288C195.418 299.288 192.479 296.206 192.479 292.354C192.479 292.097 192.479 291.841 192.561 291.584C191.907 291.498 191.254 291.413 190.601 291.413C184.64 291.413 179.739 296.548 179.739 302.796C179.739 309.046 184.64 314.181 190.601 314.181C196.562 314.181 201.462 309.046 201.462 302.796C201.462 301.512 201.217 300.229 200.89 299.03C200.319 299.116 199.746 299.288 199.094 299.288Z" fill="#B5B5B5"/>
<path d="M283.369 437.008C280.674 427.85 272.426 422.971 259.034 418.862C250.541 416.295 239.762 415.096 222.857 411.501C214.609 409.79 208.811 406.366 208.811 406.366V416.21C208.811 416.21 264.75 427.765 273.488 442.915C277.735 450.361 276.428 468.592 256.42 470.476C262.546 471.417 272.589 469.791 277.979 464.056C284.676 456.952 286.473 447.451 283.369 437.008Z" fill="#282323" stroke="black" stroke-width="4" stroke-miterlimit="10" stroke-linecap="round" stroke-linejoin="round"/>
<path d="M208.811 416.21C208.811 416.21 242.293 422.715 260.177 430.76C275.857 437.865 275.367 445.225 275.775 452.758C276.019 457.123 273.08 467.909 261.157 469.791C246.948 472.017 230.207 469.62 208.811 455.326C208.811 420.318 208.811 416.21 208.811 416.21Z" fill="#442C2A"/>
<path opacity="0.37" d="M275.775 452.758C275.448 446.681 275.693 440.689 267.527 434.869C267.853 437.008 267.936 439.062 268.017 441.203C268.261 445.568 265.322 456.353 253.399 458.236C240.987 460.205 226.532 458.578 208.811 448.564C208.811 450.704 208.811 452.929 208.811 455.24C230.207 469.535 246.948 471.845 261.157 469.706C273.162 467.909 276.019 457.037 275.775 452.758Z" fill="#442C2A"/>
<path d="M208.811 416.21C208.811 416.21 242.293 422.715 260.177 430.76C275.857 437.865 275.367 445.225 275.775 452.758C276.019 457.123 273.08 467.909 261.157 469.791C246.948 472.017 230.207 469.62 208.811 455.326C208.811 420.318 208.811 416.21 208.811 416.21Z" stroke="black" stroke-width="4" stroke-miterlimit="10" stroke-linecap="round" stroke-linejoin="round"/>
<path d="M239.843 436.324C242.538 437.864 241.885 452.844 235.351 454.898" stroke="black" stroke-width="4" stroke-miterlimit="10" stroke-linecap="round" stroke-linejoin="round"/>
<path d="M229.636 435.211C232.412 439.32 230.452 448.992 225.47 451.389" stroke="black" stroke-width="4" stroke-miterlimit="10" stroke-linecap="round" stroke-linejoin="round"/>
<path d="M220.244 431.788C223.021 435.896 221.061 445.568 216.079 447.965" stroke="black" stroke-width="4" stroke-miterlimit="10" stroke-linecap="round" stroke-linejoin="round"/>
<path d="M159.813 199.484V245.02" stroke="black" stroke-width="6" stroke-miterlimit="10" stroke-linecap="round" stroke-linejoin="round"/>
<path d="M214.936 199.484V231.582" stroke="black" stroke-width="6" stroke-miterlimit="10" stroke-linecap="round" stroke-linejoin="round"/>
<path d="M214.936 241.254C218.679 241.254 221.713 238.073 221.713 234.15C221.713 230.227 218.679 227.046 214.936 227.046C211.193 227.046 208.158 230.227 208.158 234.15C208.158 238.073 211.193 241.254 214.936 241.254Z" fill="black"/>
<path d="M214.936 236.204C216.47 236.204 217.712 234.901 217.712 233.294C217.712 231.686 216.47 230.384 214.936 230.384C213.403 230.384 212.159 231.686 212.159 233.294C212.159 234.901 213.403 236.204 214.936 236.204Z" fill="#7E7E7E"/>
<path d="M188.478 157.115C160.059 157.115 136.948 132.977 136.948 103.105V40.4496H240.006V103.105C240.006 132.892 216.977 157.115 188.478 157.115Z" fill="#FFC897"/>
<path d="M188.478 149.668C160.059 149.668 136.948 125.53 136.948 95.658V103.105C136.948 132.892 159.977 157.115 188.478 157.115C216.896 157.115 240.006 132.977 240.006 103.105V95.658C240.006 125.445 216.977 149.668 188.478 149.668Z" fill="#E5A973"/>
<path d="M188.478 157.115C160.059 157.115 136.948 132.977 136.948 103.105V40.4496H240.006V103.105C240.006 132.892 216.977 157.115 188.478 157.115Z" stroke="black" stroke-width="4" stroke-miterlimit="10" stroke-linecap="round" stroke-linejoin="round"/>
<path d="M240.414 46.6981C240.252 43.7879 240.088 40.7921 240.006 37.8818C205.709 39.5938 171.246 39.337 137.03 36.1699C136.784 39.5082 136.622 42.8463 136.376 46.1846C137.928 47.6396 139.562 49.1803 141.114 50.6354C142.42 51.3202 144.134 52.2618 145.686 53.1177C152.546 56.8838 162.1 61.6771 171.246 63.5602C174.595 64.245 178.106 64.5873 181.699 64.5017C197.134 64.3306 210.118 57.9109 215.59 55.2576C216.406 54.8295 217.06 54.4872 217.468 54.4016C217.794 54.2304 218.121 54.1449 218.611 54.1449C219.591 54.1449 220.734 54.4016 222.122 54.6584C223.919 55.0864 226.042 55.5143 228.411 55.3431C231.105 55.172 233.555 54.316 235.924 52.6897C237.311 50.6354 238.863 48.6668 240.414 46.6981Z" fill="#E5A973"/>
<path d="M215.59 14.1722C215.59 14.1722 174.349 -14.3307 140.214 17.5104C133.845 23.4165 131.314 31.8902 131.314 39.6793V80.9359H137.03V50.9779C137.03 48.7523 138.5 47.0405 140.296 47.0405C143.236 47.0405 159.161 55.9422 172.635 58.4245C192.969 62.1051 211.506 52.2618 215.508 50.8066C222.367 48.2388 227.92 57.1407 236.576 47.1261H236.903C238.7 47.1261 240.17 48.9235 240.17 51.0633V81.0215H245.886V39.9361C245.723 29.836 234.616 4.50004 215.59 14.1722Z" fill="#231A17"/>
<g opacity="0.34">
<path opacity="0.34" d="M136.948 75.2867H131.232V80.936H136.948V75.2867Z" fill="#231A17"/>
<path opacity="0.34" d="M245.723 75.2867H240.006V80.936H245.723V75.2867Z" fill="#231A17"/>
</g>
<path d="M215.59 14.1722C215.59 14.1722 174.349 -14.3307 140.214 17.5104C133.845 23.4165 131.314 31.8902 131.314 39.6793V80.9359H137.03V50.9779C137.03 48.7523 138.5 47.0405 140.296 47.0405C143.236 47.0405 159.161 55.9422 172.635 58.4245C192.969 62.1051 211.506 52.2618 215.508 50.8066C222.367 48.2388 227.92 57.1407 236.576 47.1261H236.903C238.7 47.1261 240.17 48.9235 240.17 51.0633V81.0215H245.886V39.9361C245.723 29.836 234.616 4.50004 215.59 14.1722Z" stroke="black" stroke-width="4" stroke-miterlimit="10" stroke-linecap="round" stroke-linejoin="round"/>
<path d="M180.72 41.9903C180.72 41.9903 136.459 44.9861 127.067 20.3349" stroke="black" stroke-width="4" stroke-miterlimit="10" stroke-linecap="round" stroke-linejoin="round"/>
<path d="M187.008 36.0843C187.008 36.0843 144.38 33.2597 133.273 8.60857" stroke="black" stroke-width="4" stroke-miterlimit="10" stroke-linecap="round" stroke-linejoin="round"/>
<path d="M240.006 74.2594V102.334C245.723 102.334 250.295 96.0859 250.295 88.2968C250.295 80.5078 245.723 74.2594 240.006 74.2594Z" fill="#FFC897"/>
<path d="M240.006 75.8001V100.708C243.355 98.3971 245.642 93.6894 245.642 88.2114C245.642 82.8189 243.355 78.1113 240.006 75.8001Z" fill="#E5A973"/>
<path d="M240.006 74.2594V102.334C245.723 102.334 250.295 96.0859 250.295 88.2968C250.295 80.5078 245.723 74.2594 240.006 74.2594Z" stroke="black" stroke-width="4" stroke-miterlimit="10" stroke-linecap="round" stroke-linejoin="round"/>
<path d="M137.03 74.2594V102.334C131.313 102.334 126.741 96.0859 126.741 88.2968C126.659 80.5078 131.313 74.2594 137.03 74.2594Z" fill="#FFC897"/>
<path d="M137.03 76.3138C134.091 78.7959 132.048 83.2469 132.048 88.297C132.048 93.347 134.008 97.798 137.03 100.28V76.3138Z" fill="#E5A973"/>
<path d="M137.03 74.2594V102.334C131.313 102.334 126.741 96.0859 126.741 88.2968C126.659 80.5078 131.313 74.2594 137.03 74.2594Z" stroke="black" stroke-width="4" stroke-miterlimit="10" stroke-linecap="round" stroke-linejoin="round"/>
<path d="M186.354 97.1133L182.924 108.84C182.924 110.124 186.926 109.097 191.009 110.124" stroke="black" stroke-width="4" stroke-miterlimit="10" stroke-linecap="round" stroke-linejoin="round"/>
<path d="M205.626 119.025C206.852 127.927 195.909 135.802 187.334 134.175" stroke="black" stroke-width="3" stroke-miterlimit="10" stroke-linecap="round" stroke-linejoin="round"/>
<path d="M169.94 87.1843C171.834 87.1843 173.37 85.4598 173.37 83.3326C173.37 81.2053 171.834 79.4809 169.94 79.4809C168.046 79.4809 166.511 81.2053 166.511 83.3326C166.511 85.4598 168.046 87.1843 169.94 87.1843Z" stroke="black" stroke-width="2" stroke-miterlimit="10" stroke-linecap="round" stroke-linejoin="round"/>
<path d="M169.94 87.1843C171.834 87.1843 173.37 85.4598 173.37 83.3326C173.37 81.2053 171.834 79.4809 169.94 79.4809C168.046 79.4809 166.511 81.2053 166.511 83.3326C166.511 85.4598 168.046 87.1843 169.94 87.1843Z" fill="black"/>
<path d="M158.099 75.2009C159.813 73.0611 163.816 71.6059 168.552 71.6059C172.308 71.6059 175.575 72.5475 177.616 74.0026" stroke="black" stroke-width="3" stroke-miterlimit="10" stroke-linecap="round" stroke-linejoin="round"/>
<path d="M207.505 87.1843C209.399 87.1843 210.935 85.4598 210.935 83.3326C210.935 81.2053 209.399 79.4809 207.505 79.4809C205.611 79.4809 204.074 81.2053 204.074 83.3326C204.074 85.4598 205.611 87.1843 207.505 87.1843Z" stroke="black" stroke-width="2" stroke-miterlimit="10" stroke-linecap="round" stroke-linejoin="round"/>
<path d="M207.505 87.1843C209.399 87.1843 210.935 85.4598 210.935 83.3326C210.935 81.2053 209.399 79.4809 207.505 79.4809C205.611 79.4809 204.074 81.2053 204.074 83.3326C204.074 85.4598 205.611 87.1843 207.505 87.1843Z" fill="black"/>
<path d="M219.347 75.2009C217.631 73.0611 213.63 71.6059 208.893 71.6059C205.136 71.6059 201.87 72.5475 199.829 74.0026" stroke="black" stroke-width="3" stroke-miterlimit="10" stroke-linecap="round" stroke-linejoin="round"/>
</svg>
